# xmcd CD database file
#
# Track frame offsets:
#	150
#	19129
#	33661
#	53591
#	72051
#	88698
#	105294
#	118586
#	131079
#	146476
#	158083
#
# Disc length: 2275 seconds
#
# Revision: 0
# Processed by: cddbd v1.4PL0 Copyright (c) Steve Scherf et al.
# Submitted via: CDex 1.50Beta7
#
DISCID=8b08e10b
DTITLE=Vários - Bailão Sertanejo 2003
DYEAR=2003
DGENRE=Country
TTITLE0=Nóis Capota Mais num Breca ( Jad Jefferson -Remix)
TTITLE1=Galinhada (Chitãozinho e Xororó)
TTITLE2=A Jiripóca vai piar (andré e Adriano)
TTITLE3=Dadada Remix ( by dj cedrus)
TTITLE4=Ela Chorou de Amor (Gino e Geno)
TTITLE5=Rodeio e Vaquejada ( Rick e Renner)
TTITLE6=Bota pra Moer( Daniel)
TTITLE7=Rodopiou (Rionegro e Solimões)
TTITLE8=Garrafão (Teodoro e Sampaio)
TTITLE9=Sapatio Sapatio ( Emilio e Eduardo)
TTITLE10=Eu já Biquei (Tradição)
EXTD=YEAR: 2003
EXTT0=
EXTT1=
EXTT2=
EXTT3=
EXTT4=
EXTT5=
EXTT6=
EXTT7=
EXTT8=
EXTT9=
EXTT10=
PLAYORDER=
